<?xml version="1.0" encoding="UTF-8"?>
<svg width="300px" height="80px" viewBox="0 0 300 80" version="1.1" xmlns="http://www.w3.org/2000/svg" xmlns:xlink="http://www.w3.org/1999/xlink">
    <!-- Generator: Sketch 52.6 (67491) - http://www.bohemiancoding.com/sketch -->
    <title>Logo/DPI-Full/Rev</title>
    <desc>Created with Sketch.</desc>
    <g id="Logo/DPI-Full/Rev" stroke="none" stroke-width="1" fill="none" fill-rule="evenodd">
        <path d="M104.4,34.2 L110,34.2 C114.6,34.2 117.9,37.4 117.9,41.6 C117.9,45.8 114.7,49 110,49 L104.5,49 L104.5,34.2 L104.4,34.2 Z M107,36.5 L107,46.6 L110,46.6 C113.1,46.6 115.1,44.5 115.1,41.6 C115.1,38.7 113.1,36.6 110,36.6 L107,36.6 L107,36.5 Z M119.5,43.4 C119.5,40.2 121.8,37.5 124.9,37.5 C128.4,37.5 130.2,40.3 130.2,43.5 C130.2,43.7 130.2,44 130.2,44.2 L122,44.2 C122.3,46 123.6,47 125.2,47 C126.4,47 127.3,46.5 128.2,45.7 L129.7,47 C128.6,48.3 127.2,49.1 125.1,49.1 C122,49.2 119.5,46.9 119.5,43.4 Z M127.7,42.6 C127.5,41 126.6,39.7 124.9,39.7 C123.3,39.7 122.2,40.9 122,42.6 L127.7,42.6 Z M132.3,37.8 L134.9,37.8 L134.9,39.7 C135.7,38.5 136.9,37.6 138.7,37.6 C141.3,37.6 143.9,39.7 143.9,43.4 C143.9,47.1 141.4,49.2 138.7,49.2 C136.8,49.2 135.7,48.3 134.9,47.2 L134.9,52.3 L132.3,52.3 L132.3,37.8 Z M141.2,43.4 C141.2,41.2 139.7,39.8 138,39.8 C136.3,39.8 134.8,41.2 134.8,43.4 C134.8,45.5 136.3,47 138,47 C139.8,47 141.2,45.6 141.2,43.4 Z M145.2,45.7 C145.2,43.2 147.1,42.1 149.8,42.1 C151,42.1 151.9,42.3 152.8,42.6 L152.8,42.3 C152.8,40.7 151.8,39.9 150,39.9 C148.8,39.9 147.8,40.2 146.8,40.6 L146.1,38.6 C147.3,38.1 148.5,37.7 150.3,37.7 C152,37.7 153.2,38.1 154,38.9 C154.8,39.7 155.2,40.9 155.2,42.3 L155.2,48.9 L152.7,48.9 L152.7,47.5 C151.9,48.4 150.8,49.1 149.1,49.1 C147,49.2 145.2,48 145.2,45.7 Z M152.8,44.9 L152.8,44.1 C152.1,43.8 151.3,43.7 150.3,43.7 C148.7,43.7 147.7,44.4 147.7,45.6 C147.7,46.7 148.6,47.3 149.9,47.3 C151.5,47.3 152.8,46.4 152.8,44.9 Z M157.8,37.8 L160.4,37.8 L160.4,40.3 C161.1,38.6 162.4,37.5 164.3,37.6 L164.3,40.3 L164.2,40.3 C162,40.3 160.4,41.8 160.4,44.7 L160.4,48.9 L157.8,48.9 L157.8,37.8 Z M166.4,45.9 L166.4,40 L165,40 L165,37.8 L166.4,37.8 L166.4,34.7 L169,34.7 L169,37.8 L172,37.8 L172,40 L169,40 L169,45.5 C169,46.5 169.5,46.9 170.4,46.9 C171,46.9 171.5,46.8 172,46.5 L172,48.6 C171.4,49 170.7,49.2 169.7,49.2 C167.8,49.1 166.4,48.3 166.4,45.9 Z M174,37.8 L176.6,37.8 L176.6,39.5 C177.3,38.5 178.3,37.6 180,37.6 C181.6,37.6 182.7,38.4 183.3,39.6 C184.2,38.4 185.4,37.6 187.1,37.6 C189.5,37.6 191,39.1 191,41.9 L191,49 L188.4,49 L188.4,42.7 C188.4,40.9 187.6,40 186.1,40 C184.7,40 183.7,41 183.7,42.8 L183.7,49.1 L181.1,49.1 L181.1,42.7 C181.1,41 180.3,40 178.8,40 C177.4,40 176.4,41.1 176.4,42.8 L176.4,49.1 L174,49.1 L174,37.8 Z M192.9,43.4 C192.9,40.2 195.2,37.5 198.3,37.5 C201.8,37.5 203.6,40.3 203.6,43.5 C203.6,43.7 203.6,44 203.6,44.2 L195.4,44.2 C195.7,46 197,47 198.6,47 C199.8,47 200.7,46.5 201.6,45.7 L203.1,47 C202,48.3 200.6,49.1 198.5,49.1 C195.4,49.2 192.9,46.9 192.9,43.4 Z M201.2,42.6 C201,41 200.1,39.7 198.4,39.7 C196.8,39.7 195.7,40.9 195.5,42.6 L201.2,42.6 Z M205.7,37.8 L208.3,37.8 L208.3,39.5 C209,38.5 210.1,37.6 211.8,37.6 C214.3,37.6 215.8,39.3 215.8,41.9 L215.8,49 L213.2,49 L213.2,42.7 C213.2,41 212.3,40 210.8,40 C209.3,40 208.3,41 208.3,42.8 L208.3,49.1 L205.7,49.1 L205.7,37.8 Z M218.8,45.9 L218.8,40 L217.4,40 L217.4,37.8 L218.8,37.8 L218.8,34.7 L221.4,34.7 L221.4,37.8 L224.4,37.8 L224.4,40 L221.4,40 L221.4,45.5 C221.4,46.5 221.9,46.9 222.8,46.9 C223.4,46.9 223.9,46.8 224.4,46.5 L224.4,48.6 C223.8,49 223.1,49.2 222.1,49.2 C220.1,49.1 218.8,48.3 218.8,45.9 Z M231.6,43.4 C231.6,40.2 234.1,37.5 237.6,37.5 C241,37.5 243.5,40.1 243.5,43.3 C243.5,46.5 241,49.1 237.5,49.1 C234.1,49.2 231.6,46.6 231.6,43.4 Z M240.9,43.4 C240.9,41.4 239.5,39.8 237.5,39.8 C235.5,39.8 234.1,41.4 234.1,43.3 C234.1,45.2 235.5,46.9 237.5,46.9 C239.6,47 240.9,45.4 240.9,43.4 Z M246.1,40 L244.7,40 L244.7,37.9 L246.1,37.9 L246.1,37.1 C246.1,35.9 246.4,34.9 247,34.4 C247.6,33.8 248.4,33.5 249.5,33.5 C250.4,33.5 251,33.6 251.6,33.8 L251.6,36 C251.1,35.8 250.7,35.7 250.1,35.7 C249.1,35.7 248.6,36.2 248.6,37.4 L248.6,38 L251.6,38 L251.6,40.1 L248.7,40.1 L248.7,49.1 L246.1,49.1 L246.1,40 Z M104.4,54.3 L110.2,54.3 C113.7,54.3 115.8,56.3 115.8,59.2 C115.8,62.5 113.1,64.2 109.9,64.2 L107,64.2 L107,69 L104.4,69 C104.4,69.1 104.4,54.3 104.4,54.3 Z M110.1,62 C112.1,62 113.3,60.9 113.3,59.4 C113.3,57.7 112.1,56.8 110.1,56.8 L107.1,56.8 L107.1,62.1 L110.1,62.1 L110.1,62 Z M117.7,58 L120.3,58 L120.3,60.5 C121,58.8 122.3,57.7 124.2,57.8 L124.2,60.5 L124.1,60.5 C121.9,60.5 120.3,62 120.3,64.9 L120.3,69.1 L117.7,69.1 L117.7,58 Z M125.9,53.8 L128.6,53.8 L128.6,56.2 L125.9,56.2 L125.9,53.8 Z M126,58 L128.6,58 L128.6,69.2 L126,69.2 L126,58 Z M131.4,58 L134,58 L134,59.7 C134.7,58.7 135.7,57.8 137.4,57.8 C139,57.8 140.1,58.6 140.7,59.8 C141.6,58.6 142.8,57.8 144.5,57.8 C146.9,57.8 148.4,59.3 148.4,62.1 L148.4,69.2 L145.8,69.2 L145.8,62.9 C145.8,61.1 145,60.2 143.5,60.2 C142.1,60.2 141.1,61.2 141.1,63 L141.1,69.3 L138.5,69.3 L138.5,62.9 C138.5,61.2 137.7,60.2 136.2,60.2 C134.8,60.2 133.8,61.3 133.8,63 L133.8,69.3 L131.2,69.3 C131.4,69.1 131.4,58 131.4,58 Z M150.1,65.9 C150.1,63.4 152,62.3 154.7,62.3 C155.9,62.3 156.8,62.5 157.7,62.8 L157.7,62.5 C157.7,60.9 156.7,60.1 154.9,60.1 C153.7,60.1 152.7,60.4 151.7,60.8 L151,58.8 C152.2,58.3 153.4,57.9 155.2,57.9 C156.9,57.9 158.1,58.3 158.9,59.1 C159.7,59.9 160.1,61.1 160.1,62.5 L160.1,69.1 L157.6,69.1 L157.6,67.7 C156.8,68.6 155.7,69.3 154,69.3 C152,69.3 150.1,68.1 150.1,65.9 Z M157.8,65.1 L157.8,64.3 C157.1,64 156.3,63.9 155.3,63.9 C153.7,63.9 152.7,64.6 152.7,65.8 C152.7,66.9 153.6,67.5 154.9,67.5 C156.5,67.5 157.8,66.5 157.8,65.1 Z M162.7,58 L165.3,58 L165.3,60.5 C166,58.8 167.3,57.7 169.2,57.8 L169.2,60.5 L169,60.5 C166.8,60.5 165.2,62 165.2,64.9 L165.2,69.1 L162.6,69.1 L162.6,58 L162.7,58 Z M178.6,58 L181.3,58 L176.9,69.5 C176,71.8 172.4,72 170.6,72 C169.6,72 168.8,71.8 168,71.3 L171.4,70 C171.9,70.3 172.4,70.4 172.9,70.4 C173.6,70.4 174.1,70.1 174.5,69.1 L169.9,57.9 L172.6,57.9 L175.7,66.2 L178.6,58 Z M189.1,54.3 L191.7,54.3 L191.7,69.1 L189.1,69.1 L189.1,54.3 Z M194.8,58 L197.4,58 L197.4,59.7 C198.1,58.7 199.2,57.8 200.9,57.8 C203.4,57.8 204.9,59.5 204.9,62.1 L204.9,69.2 L202.3,69.2 L202.3,62.9 C202.3,61.2 201.4,60.2 199.9,60.2 C198.4,60.2 197.4,61.2 197.4,63 L197.4,69.3 L194.8,69.3 L194.8,58 Z M206.8,63.6 C206.8,59.9 209.3,57.8 212,57.8 C213.8,57.8 215,58.7 215.8,59.8 L215.8,53.8 L218.4,53.8 L218.4,69.2 L215.8,69.2 L215.8,67.3 C215,68.5 213.8,69.4 212,69.4 C209.3,69.3 206.8,67.2 206.8,63.6 Z M215.8,63.6 C215.8,61.4 214.3,60 212.6,60 C210.8,60 209.4,61.4 209.4,63.6 C209.4,65.8 210.9,67.2 212.6,67.2 C214.3,67.1 215.8,65.7 215.8,63.6 Z M220.8,65.1 L220.8,58 L223.4,58 L223.4,64.3 C223.4,66 224.3,67 225.8,67 C227.3,67 228.3,66 228.3,64.3 L228.3,58 L230.9,58 L230.9,69.2 L228.3,69.2 L228.3,67.5 C227.6,68.6 226.5,69.5 224.8,69.5 C222.3,69.3 220.8,67.6 220.8,65.1 Z M232.6,67.6 L233.7,65.9 C234.9,66.8 236.2,67.3 237.4,67.3 C238.5,67.3 239.1,66.8 239.1,66.1 C239.1,65.2 237.9,64.9 236.6,64.5 C235,64 233.1,63.4 233.1,61.2 C233.1,59.1 234.9,57.8 237.1,57.8 C238.5,57.8 240,58.3 241.2,59.1 L240.2,60.9 C239.1,60.2 238,59.8 237.1,59.8 C236.1,59.8 235.5,60.3 235.5,60.9 C235.5,61.7 236.7,62.1 238,62.5 C239.6,63 241.5,63.7 241.5,65.8 C241.5,68.1 239.7,69.3 237.4,69.3 C235.7,69.3 234,68.7 232.6,67.6 Z M243.8,66 L243.8,60.1 L242.4,60.1 L242.4,57.9 L243.8,57.9 L243.8,54.8 L246.4,54.8 L246.4,57.9 L249.4,57.9 L249.4,60.1 L246.4,60.1 L246.4,65.6 C246.4,66.6 246.9,67 247.8,67 C248.4,67 248.9,66.9 249.4,66.6 L249.4,68.7 C248.8,69.1 248.1,69.3 247.1,69.3 C245.2,69.3 243.8,68.5 243.8,66 Z M251.4,58 L254,58 L254,60.5 C254.7,58.8 256,57.7 257.9,57.8 L257.9,60.5 L257.8,60.5 C255.6,60.5 254,62 254,64.9 L254,69.1 L251.4,69.1 L251.4,58 Z M259.6,53.8 L262.3,53.8 L262.3,56.2 L259.6,56.2 L259.6,53.8 Z M259.8,58 L262.4,58 L262.4,69.2 L259.8,69.2 L259.8,58 Z M264.5,63.6 C264.5,60.4 266.8,57.7 269.9,57.7 C273.4,57.7 275.2,60.5 275.2,63.7 C275.2,63.9 275.2,64.2 275.2,64.4 L267,64.4 C267.3,66.2 268.6,67.2 270.2,67.2 C271.4,67.2 272.3,66.7 273.2,65.9 L274.7,67.2 C273.6,68.5 272.2,69.3 270.1,69.3 C267,69.4 264.5,67 264.5,63.6 Z M272.7,62.7 C272.5,61.1 271.6,59.8 269.9,59.8 C268.3,59.8 267.2,61 267,62.7 L272.7,62.7 Z M276.4,67.6 L277.5,65.9 C278.7,66.8 280,67.3 281.2,67.3 C282.3,67.3 282.9,66.8 282.9,66.1 C282.9,65.2 281.7,64.9 280.4,64.5 C278.8,64 276.9,63.4 276.9,61.2 C276.9,59.1 278.7,57.8 280.9,57.8 C282.3,57.8 283.8,58.3 285,59.1 L284,60.9 C282.9,60.2 281.8,59.8 280.9,59.8 C279.9,59.8 279.3,60.3 279.3,60.9 C279.3,61.7 280.5,62.1 281.8,62.5 C283.4,63 285.3,63.7 285.3,65.8 C285.3,68.1 283.5,69.3 281.2,69.3 C279.5,69.3 277.8,68.7 276.4,67.6 Z M29,55.4 C29,55.4 29,44.8 29,44.9 L32.6,44.9 L32.6,61.4 L28.8,61.4 L19.9,50.9 L19.9,61.4 L16.2,61.4 L16.2,44.9 L20,44.9 L29,55.4 Z M64.5,44.8 L64.5,45 L68.2,45 L63.9,61.3 L63.9,61.4 L60.2,61.4 L57.6,51 L55.1,61.4 L51.3,61.4 L47,44.9 L50.9,44.9 L53.3,55.3 L55.9,44.9 L59.4,44.9 L62,55.4 L64.5,44.8 Z M15.8,66.4 C15.8,65 16.9,63.7 18.4,63.7 C19.3,63.7 19.8,63.9 20.4,64.4 L19.8,65.1 C19.4,64.8 19,64.6 18.4,64.6 C17.5,64.6 16.7,65.4 16.7,66.4 C16.7,67.4 17.4,68.2 18.4,68.2 C18.9,68.2 19.3,68 19.6,67.8 L19.6,66.8 L18.4,66.8 L18.4,66 L20.6,66 L20.6,68.1 C20.1,68.5 19.4,68.9 18.5,68.9 C16.9,69 15.8,67.8 15.8,66.4 Z M21.1,66.4 C21.1,65 22.2,63.7 23.8,63.7 C25.4,63.7 26.5,64.9 26.5,66.3 C26.5,67.7 25.4,68.9 23.8,68.9 C22.2,69 21.1,67.8 21.1,66.4 Z M25.5,66.4 C25.5,65.4 24.8,64.6 23.8,64.6 C22.8,64.6 22.1,65.4 22.1,66.4 C22.1,67.4 22.8,68.2 23.8,68.2 C24.8,68.2 25.5,67.4 25.5,66.4 Z M26.4,63.8 L27.4,63.8 L28.9,67.7 L30.5,63.8 L31.4,63.8 L29.3,68.9 L28.5,68.9 L26.4,63.8 Z M32,63.8 L35.8,63.8 L35.8,64.6 L32.9,64.6 L32.9,65.9 L35.5,65.9 L35.5,66.7 L32.9,66.7 L32.9,68.1 L35.8,68.1 L35.8,68.9 L32,68.9 L32,63.8 Z M36.7,63.8 L39,63.8 C39.6,63.8 40.1,64 40.5,64.3 C40.8,64.6 40.9,65 40.9,65.4 C40.9,66.2 40.4,66.7 39.7,66.9 L41.1,68.8 L40,68.8 L38.7,67 L37.6,67 L37.6,68.8 L36.7,68.8 C36.7,68.9 36.7,63.8 36.7,63.8 Z M38.9,66.3 C39.5,66.3 39.9,66 39.9,65.4 C39.9,64.9 39.5,64.6 38.8,64.6 L37.5,64.6 L37.5,66.3 L38.9,66.3 Z M41.7,63.8 L42.5,63.8 L45.2,67.3 L45.2,63.8 L46.1,63.8 L46.1,68.9 L45.4,68.9 L42.5,65.3 L42.5,68.9 L41.7,68.9 L41.7,63.8 Z M47,63.8 L48,63.8 L49.5,66.2 L51.1,63.8 L52,63.8 L52,68.9 L51.1,68.9 L51.1,65.2 L49.5,67.6 L47.9,65.3 L47.9,68.9 L47,68.9 L47,63.8 Z M52.9,63.8 L56.7,63.8 L56.7,64.6 L53.8,64.6 L53.8,65.9 L56.3,65.9 L56.3,66.7 L53.8,66.7 L53.8,68.1 L56.7,68.1 L56.7,68.9 L52.9,68.9 L52.9,63.8 Z M57.6,63.8 L58.4,63.8 L61.1,67.3 L61.1,63.8 L62,63.8 L62,68.9 L61.3,68.9 L58.5,65.3 L58.5,68.9 L57.6,68.9 L57.6,63.8 Z M64.3,64.6 L62.7,64.6 L62.7,63.8 L66.9,63.8 L66.9,64.6 L65.2,64.6 L65.2,68.9 L64.3,68.9 L64.3,64.6 Z M33.7,59 L35.9,56.4 C37.4,57.6 39,58.4 40.9,58.4 C42.4,58.4 43.3,57.8 43.3,56.8 C43.3,55.9 42.7,55.4 39.9,54.7 C36.5,53.8 34.4,52.9 34.4,49.6 C34.4,46.6 36.8,44.6 40.3,44.6 C42.7,44.6 44.8,45.4 46.5,46.7 L44.6,49.5 C43.1,48.5 41.7,47.9 40.2,47.9 C38.8,47.9 38.1,48.5 38.1,49.4 C38.1,50.5 38.8,50.9 41.7,51.6 C45.1,52.5 47,53.7 47,56.6 C47,59.9 44.5,61.8 40.9,61.8 C38.2,61.7 35.7,60.8 33.7,59 Z M25,13.6 C25.1,13.6 25.2,13.6 25.4,13.6 C25.4,13.6 25.6,13.7 25.9,13.8 C26.4,14 29.1,15.1 32.1,17.1 C31.6,17.3 31.3,17.7 31.2,18.3 C31,19.3 30.3,22.7 30.3,26.7 C30.3,29.6 30.6,32.2 31.3,34.4 C32.1,36.7 33.4,38.2 34.6,39.1 C31.6,39.1 28.9,37.2 27,33.9 C24.5,29.6 24,24 24,20 C24,18.2 24.1,16.7 24.2,15.8 C24.3,14.8 24.4,14.2 24.4,14.2 C24.4,13.8 24.7,13.6 25,13.6 Z M50.9,18.2 C51.1,18.2 51.2,18.4 51.1,18.6 C51.1,18.6 51.1,18.8 51.2,19.2 C51.4,20.4 51.9,23.4 51.9,26.8 C51.9,29.6 51.5,32 50.9,34.1 C49.7,38 46.2,39.7 44.1,39.7 C43.7,39.7 43.3,39.6 43,39.5 C42.3,39.2 41.8,38.7 41.5,38 C41.2,37.3 41,36.4 41,35.3 C41,33.9 41.3,32.1 41.9,30.1 C43,26.6 45.3,23.6 47,21.7 C48.1,20.5 49,19.6 49.5,19.2 C49.9,18.9 50.1,18.6 50.3,18.5 C50.5,18.4 50.6,18.3 50.6,18.3 C50.7,18.2 50.8,18.2 50.9,18.2 Z M32.6,18.2 C32.7,18.2 32.8,18.2 32.9,18.3 C32.9,18.3 33,18.3 33.2,18.5 C33.8,19 39,23.3 41.3,28.9 C41.3,28.9 41.2,29 41.2,29.1 C41.1,29.3 41.1,29.5 41,29.7 C40.3,31.8 40,33.7 40,35.3 C40,36.6 40.2,37.6 40.6,38.5 C40.7,38.7 40.8,39 41,39.2 C40.8,39.3 40.7,39.4 40.5,39.5 C40.1,39.6 39.8,39.7 39.3,39.7 C37.2,39.7 33.6,38 32.4,34.1 C31.7,32.1 31.4,29.6 31.4,26.8 C31.4,24.5 31.6,22.4 31.8,21 C31.9,20.1 32,19.5 32.1,19.2 C32.1,18.9 32.2,18.6 32.2,18.6 C32.3,18.4 32.4,18.2 32.6,18.2 Z M41.8,9 C41.8,9 42,9 42.2,9.2 C42.2,9.2 42.3,9.4 42.5,9.7 C43.4,11.1 45.6,15.1 47.2,19.9 C44.8,22.3 43.1,24.8 41.9,27.3 C40.4,24.1 38.1,21.5 36.4,19.8 C36.8,18.4 37.4,17 38,15.6 C38.9,13.6 39.7,12 40.3,11 C40.6,10.6 40.8,10.1 41.1,9.7 C41.3,9.5 41.4,9.3 41.4,9.3 C41.5,9.1 41.7,9 41.8,9 Z M58.5,13.6 C58.8,13.6 59.1,13.8 59.1,14.4 C59.1,14.4 59.2,15 59.3,16 C59.4,17.4 59.5,18.8 59.5,20.2 C59.5,24.1 59,29.8 56.5,34.1 C54.7,37.3 52,39.2 49.1,39.3 C50.2,38.4 51.6,36.9 52.3,34.6 C53,32.4 53.3,29.8 53.3,26.9 C53.3,22.9 52.6,19.5 52.4,18.5 C52.4,18.4 52.4,18.4 52.4,18.4 C52.3,17.9 51.9,17.4 51.5,17.2 C51.7,17.1 51.8,17 52,16.9 C53.3,16 54.8,15.2 56.3,14.5 L56.5,14.4 C57,14.2 57.4,14 57.7,13.9 C58,13.8 58.2,13.7 58.2,13.7 C58.3,13.6 58.4,13.6 58.5,13.6 Z M50.3,10.2 C50.6,10.2 50.8,10.4 51,10.7 C51.2,11.3 51.7,13 52.2,15.3 C50.6,16.2 49.2,17.2 47.9,18.2 C47.3,16.6 46.6,14.9 45.8,13.3 C46.9,12.5 47.7,11.8 48.3,11.4 C49.2,10.7 49.9,10.3 49.9,10.3 C50,10.2 50.1,10.2 50.2,10.2 C50.2,10.2 50.3,10.2 50.3,10.2 Z M33.2,10.2 C33.2,10.2 33.3,10.2 33.4,10.2 C33.5,10.2 33.6,10.2 33.7,10.3 C33.7,10.3 34.3,10.7 35.3,11.4 C36.1,11.9 37,12.6 37.8,13.3 C37,14.9 36.3,16.6 35.7,18.2 C34.4,17.2 33,16.3 31.4,15.3 C31.9,13 32.4,11.3 32.6,10.7 C32.7,10.4 32.9,10.2 33.2,10.2 Z M18.8,20.9 C18.9,20.9 19.1,20.9 19.1,20.8 C19.9,20.8 21.1,20.9 22.7,21 C22.8,22.9 22.9,24.7 23.2,26.3 C21.9,26.8 20.6,27.3 19.3,28 C16.8,24.8 16.4,22.6 16.3,22 C16.3,21.8 16.4,21.6 16.5,21.4 C16.7,21.1 17.1,20.9 17.4,20.9 C17.4,20.9 17.9,20.9 18.8,20.9 Z M64.7,20.9 C65.6,20.9 66.1,21 65.9,21 C66.3,21 66.6,21.2 66.8,21.5 C66.9,21.6 67,21.9 67,22.1 C67,22.7 66.6,24.8 64,28.1 C62.7,27.5 61.4,26.9 60.1,26.4 C60.4,24.7 60.6,22.9 60.6,21.1 C62.2,21 63.4,20.9 64.2,20.9 C64.4,20.9 64.6,20.9 64.7,20.9 Z M60,27.6 C61.2,28 62.3,28.6 63.6,29.1 C65.3,30 66.7,30.8 67.6,31.4 C67.7,31.5 67.8,31.5 67.9,31.6 C68.2,31.9 68.5,32.1 68.7,32.2 C69,32.4 69.1,32.5 69.1,32.5 C69.3,32.7 69.5,33 69.5,33.4 C69.5,33.6 69.4,33.8 69.3,34 C68.9,34.5 65.4,38.4 53.2,39.1 C54.9,38 56.4,36.5 57.5,34.5 C58.6,32.6 59.5,30.3 60,27.6 Z M23.5,27.6 C24.1,30.2 24.9,32.6 25.9,34.6 C27.1,36.6 28.5,38.2 30.2,39.2 C25.2,38.9 20.9,38 17.8,36.6 C16.3,35.9 15.4,35.2 14.9,34.8 C14.6,34.5 14.4,34.3 14.3,34.2 C14.3,34.1 14.3,34.1 14.3,34.1 C14.3,34.1 14.2,34 14.2,34 C14.1,33.8 14,33.6 14,33.4 C14,33 14.1,32.7 14.4,32.5 C14.4,32.5 14.6,32.4 14.8,32.2 C16,31.3 19.4,29.2 23.5,27.6 Z M58.5,39.9 C59.3,39.9 59.5,40.2 59.4,40.7 C59.4,41 59.3,41.3 59.1,41.5 C58.5,42.2 56.9,42.6 55,42.6 C53.2,42.6 51.9,42.3 50.5,41.9 C49.1,41.5 47.5,41.1 45.3,41.1 C44.6,41.1 44,41.1 43.3,41.2 C43.3,41.2 43.2,41.2 43.2,41.2 C43.1,41.2 43,41.2 43,41.1 C43,41 43,40.9 43.1,40.9 C44.9,40.5 46.8,40.4 48.3,40.4 C49,40.4 49.8,40.4 50.4,40.4 L50.5,40.4 C51.2,40.4 51.8,40.4 52.4,40.4 C53.4,40.4 54.2,40.4 54.8,40.3 C55.1,40.3 55.3,40.2 55.5,40.2 C56.9,40 57.9,39.9 58.5,39.9 Z M25.1,39.9 C25.7,39.9 26.6,40.1 28,40.1 C28.2,40.1 28.5,40.2 28.7,40.2 C29.4,40.3 30.1,40.3 31.1,40.3 C31.7,40.3 32.3,40.3 33,40.3 L33.1,40.3 C33.8,40.3 34.5,40.3 35.2,40.3 C36.7,40.3 38.6,40.3 40.3,40.8 C40.3,40.8 40.4,40.9 40.4,41 C40.4,41.1 40.3,41.1 40.2,41.1 C40.2,41.1 40.1,41.1 40.1,41.1 C39.4,41 38.7,41 38.1,41 C35.9,41 34.4,41.4 32.9,41.8 C31.5,42.2 30.2,42.5 28.4,42.5 C26.5,42.5 24.9,42.1 24.3,41.4 C24.1,41.2 24,41 24,40.7 C24.1,40.1 24.3,39.9 25.1,39.9 Z M87,69.5 C86.7,69.5 86.5,69.3 86.5,69 L86.5,13.4 C86.5,13.1 86.7,12.9 87,12.9 C87.3,12.9 87.5,13.1 87.5,13.4 L87.5,69 C87.6,69.3 87.4,69.5 87,69.5 Z" id="Combined-Shape" fill="#FFFFFF" fill-rule="nonzero"></path>
    </g>
</svg>