<?xml version="1.0" encoding="UTF-8"?>
<svg width="200px" height="200px" viewBox="0 0 200 200" version="1.1" xmlns="http://www.w3.org/2000/svg" xmlns:xlink="http://www.w3.org/1999/xlink">
    <!-- Generator: Sketch 52.4 (67378) - http://www.bohemiancoding.com/sketch -->
    <title>Logo/Boxed-Colour</title>
    <desc>Created with Sketch.</desc>
    <g id="Logo/Boxed-Colour" stroke="none" stroke-width="1" fill="none" fill-rule="evenodd">
        <g id="Colours/Grey/000" fill="#000000" fill-rule="nonzero">
            <rect id="Rectangle-Copy-18" x="0" y="0" width="200" height="200"></rect>
        </g>
        <g id="Logo/Components/Combined-Rev" transform="translate(36.000000, 22.000000)" fill="#FFFFFF">
            <path d="M1.90206546,154.851852 C1.62871092,154.851852 1.41003058,154.762549 1.24601785,154.583942 C1.08200513,154.405334 1,154.178643 1,153.903862 L1,126.989206 C1,126.686947 1.08200513,126.446518 1.24601785,126.26791 C1.41003058,126.089302 1.62871092,126 1.90206546,126 L18.5492735,126 C18.8499635,126 19.0891451,126.089302 19.2668256,126.26791 C19.444506,126.446518 19.5333449,126.686947 19.5333449,126.989206 L19.5333449,128.514233 C19.5333449,128.789014 19.444506,129.015705 19.2668256,129.194312 C19.0891451,129.37292 18.8499635,129.462222 18.5492735,129.462222 L4.81327672,129.462222 L4.81327672,139.230635 L17.729214,139.230635 C18.029904,139.230635 18.2690856,139.319937 18.4467661,139.498545 C18.6244465,139.677153 18.7132854,139.903843 18.7132854,140.178624 L18.7132854,141.744868 C18.7132854,142.019649 18.6176128,142.246339 18.4262646,142.424947 C18.2349164,142.603555 18.0025686,142.692857 17.729214,142.692857 L4.81327672,142.692857 L4.81327672,153.903862 C4.81327672,154.178643 4.71760407,154.405334 4.5262559,154.583942 C4.33490772,154.762549 4.10255985,154.851852 3.82920531,154.851852 L1.90206546,154.851852 Z M31.5775893,154.851852 C31.3042348,154.851852 31.0855545,154.762549 30.9215417,154.583942 C30.757529,154.405334 30.6755239,154.178643 30.6755239,153.903862 L30.6755239,126.947989 C30.6755239,126.673209 30.757529,126.446518 30.9215417,126.26791 C31.0855545,126.089302 31.3042348,126 31.5775893,126 L33.6277381,126 C33.9284281,126 34.160776,126.082433 34.3247887,126.247302 C34.4888014,126.41217 34.5708066,126.64573 34.5708066,126.947989 L34.5708066,153.903862 C34.5708066,154.178643 34.4819677,154.405334 34.3042872,154.583942 C34.1266068,154.762549 33.9010927,154.851852 33.6277381,154.851852 L31.5775893,154.851852 Z M48.4601849,154.851852 C48.1868303,154.851852 47.96815,154.762549 47.8041372,154.583942 C47.6401245,154.405334 47.5581194,154.178643 47.5581194,153.903862 L47.5581194,126.989206 C47.5581194,126.686947 47.6401245,126.446518 47.8041372,126.26791 C47.96815,126.089302 48.1868303,126 48.4601849,126 L65.1073929,126 C65.4080829,126 65.6472645,126.089302 65.824945,126.26791 C66.0026254,126.446518 66.0914643,126.686947 66.0914643,126.989206 L66.0914643,128.514233 C66.0914643,128.789014 66.0026254,129.015705 65.824945,129.194312 C65.6472645,129.37292 65.4080829,129.462222 65.1073929,129.462222 L51.3713961,129.462222 L51.3713961,139.230635 L64.2873334,139.230635 C64.5880234,139.230635 64.827205,139.319937 65.0048855,139.498545 C65.1825659,139.677153 65.2714048,139.903843 65.2714048,140.178624 L65.2714048,141.744868 C65.2714048,142.019649 65.1757322,142.246339 64.984384,142.424947 C64.7930358,142.603555 64.5606879,142.692857 64.2873334,142.692857 L51.3713961,142.692857 L51.3713961,153.903862 C51.3713961,154.178643 51.2757235,154.405334 51.0843753,154.583942 C50.8930271,154.762549 50.6606792,154.851852 50.3873247,154.851852 L48.4601849,154.851852 Z M84.450167,154.851852 C84.1768124,154.851852 83.9512983,154.762549 83.7736179,154.583942 C83.5959374,154.405334 83.5070985,154.178643 83.5070985,153.903862 L83.5070985,129.544656 L75.5935242,129.544656 C75.3201697,129.544656 75.0946556,129.455354 74.9169752,129.276746 C74.7392947,129.098138 74.6504558,128.871448 74.6504558,128.596667 L74.6504558,126.989206 C74.6504558,126.686947 74.7392947,126.446518 74.9169752,126.26791 C75.0946556,126.089302 75.3201697,126 75.5935242,126 L95.2749525,126 C95.5756425,126 95.8079904,126.089302 95.9720031,126.26791 C96.1360158,126.446518 96.2180209,126.686947 96.2180209,126.989206 L96.2180209,128.596667 C96.2180209,128.871448 96.129182,129.098138 95.9515016,129.276746 C95.7738211,129.455354 95.548307,129.544656 95.2749525,129.544656 L87.4023812,129.544656 L87.4023812,153.903862 C87.4023812,154.178643 87.3067085,154.405334 87.1153604,154.583942 C86.9240122,154.762549 86.6916643,154.851852 86.4183098,154.851852 L84.450167,154.851852 Z M115.273774,154.851852 C115.00042,154.851852 114.774906,154.762549 114.597225,154.583942 C114.419545,154.405334 114.330706,154.178643 114.330706,153.903862 L114.330706,144.13545 L104.448989,127.360159 C104.366982,127.19529 104.32598,127.016685 104.32598,126.824339 C104.32598,126.604514 104.407985,126.41217 104.571998,126.247302 C104.73601,126.082433 104.927356,126 105.146039,126 L107.114182,126 C107.60622,126 107.961576,126.23356 108.180259,126.700688 L116.298849,140.178624 L124.376435,126.700688 C124.649789,126.23356 125.005145,126 125.442512,126 L127.410655,126 C127.629339,126 127.827518,126.082433 128.005198,126.247302 C128.182879,126.41217 128.271717,126.604514 128.271717,126.824339 C128.271717,126.961729 128.217047,127.140334 128.107705,127.360159 L118.225988,144.13545 L118.225988,153.903862 C118.225988,154.178643 118.13715,154.405334 117.959469,154.583942 C117.781789,154.762549 117.542607,154.851852 117.241917,154.851852 L115.273774,154.851852 Z" id="Combined-Shape"></path>
            <path d="M90.7551986,97.1930252 C88.0257129,99.6092564 84.7015388,100.815604 80.7847975,100.815604 C76.8631064,100.815604 73.5580246,99.6092564 70.8638949,97.1930252 C68.1711795,94.7760868 66.8227004,91.4335275 66.8227004,87.1618117 C66.8227004,82.9615151 68.1711795,79.6521905 70.8638949,77.2366664 C73.5580246,74.8211423 76.8631064,73.6133802 80.7847975,73.6133802 C84.772958,73.6133802 88.114103,74.8211423 90.8082326,77.2366664 C93.5023623,79.6521905 94.8494271,82.9615151 94.8494271,87.1618117 C94.8494271,91.4335275 93.4853914,94.7760868 90.7551986,97.1930252 M109.859477,86.9517969 C109.859477,82.3307635 108.687778,78.1290526 106.34438,74.3480786 C103.998861,70.5671045 100.849346,67.5738628 96.8965414,65.3683535 C92.943737,63.1621371 88.6218156,62.0257943 83.9336058,61.9543751 C82.6530103,61.9543751 82.2365162,62.1601472 82.0979206,62.2831862 L82.0250871,62.3744047 C82.0250871,62.3744047 82.0399367,62.3355131 82.0979206,62.2831862 L98.2280495,42.1033773 C98.5080693,41.6833476 98.6494934,41.2279619 98.6494934,40.7393416 C98.6494934,40.10859 98.4550353,39.5662284 98.0703616,39.1101356 C97.6871022,38.6561642 97.1786825,38.4277642 96.5479309,38.4277642 L86.578237,38.4277642 C85.6674656,38.4277642 84.966709,38.6031301 84.4780886,38.9538619 C83.9873469,39.3038867 83.4633705,39.8285702 82.903331,40.5272054 L63.8146092,62.2153026 L43.1631509,62.2153026 L70.0634344,35.1071256 C73.8373372,31.3332228 74.011996,27.0197869 74.011996,22.3174346 C74.011996,18.0372333 73.0290983,14.2110035 71.0640101,10.8429879 C69.0975076,7.47497231 66.1509358,4.82609838 62.2200522,2.89565903 C58.2877543,0.965219677 53.5161042,0 47.9008592,0 C42.4949219,0 37.7939838,1.10452244 33.7923881,3.31639581 C29.7914995,5.52614782 26.7190603,8.43877775 24.5800204,12.0528713 C22.4374449,15.6676721 21.2982735,19.5455217 21.1589707,23.685713 C21.1589707,24.3164646 21.3689856,24.8432695 21.7897223,25.2640063 C22.2104591,25.6861573 22.737264,25.8961722 23.3694299,25.8961722 L32.8448465,25.8961722 C33.5463101,25.8961722 34.1954469,25.7031282 34.7929638,25.3177475 C35.3876523,24.9323667 35.7928324,24.3164646 36.0042615,23.4749911 C36.4942961,20.1762733 37.7402427,17.4934576 39.740687,15.4223012 C41.7418384,13.351852 44.4960733,12.3159202 48.0069273,12.3159202 C51.5856648,12.3159202 54.2522168,13.2634619 56.0079973,15.1585452 C57.7609494,17.0529214 58.6399004,19.6501755 58.6399004,22.9481862 C58.6399004,24.9854008 58.2318918,27.2439441 56.6401632,29.1595339 C53.7360187,32.6548313 22.631903,62.0045806 22.631903,62.0045806 C21.0875515,63.5489321 20,64.9886298 20,66.953718 L20,72.4268318 C20,73.1290026 20.2453709,73.7258124 20.7368197,74.2165541 C21.2268543,74.7087101 21.8236641,74.9526667 22.5265421,74.9526667 L54.7613437,74.9526667 C52.6562455,79.2653955 51.6033429,83.3362891 51.6033429,87.1618117 C51.6033429,92.0642791 52.8103978,96.4752977 55.2245077,100.395575 C57.6386175,104.317973 61.0667384,107.400312 65.5124059,109.639056 C69.9545378,111.881335 75.1158113,113 80.9941052,113 C86.80098,113 91.8929557,111.829008 96.2664969,109.481368 C100.640038,107.136556 103.998861,103.984919 106.34438,100.029286 C108.687778,96.0736532 109.859477,91.7142544 109.859477,86.9517969" id="Fill-1"></path>
        </g>
    </g>
</svg>