<?xml version="1.0" encoding="UTF-8"?>
<svg width="112px" height="112px" viewBox="0 0 112 112" version="1.1" xmlns="http://www.w3.org/2000/svg" xmlns:xlink="http://www.w3.org/1999/xlink">
    <!-- Generator: Sketch 52.6 (67491) - http://www.bohemiancoding.com/sketch -->
    <title>Industry/Cropping Copy</title>
    <desc>Created with Sketch.</desc>
    <defs>
        <circle id="path-1" cx="53.67" cy="53.67" r="53.67"></circle>
    </defs>
    <g id="Mobile" stroke="none" stroke-width="1" fill="none" fill-rule="evenodd">
        <g id="Artboard-Copy" transform="translate(-586.000000, -25.000000)">
            <g id="Industry/Fisheries" transform="translate(586.000000, 25.000000)">
                <g id="Colours/Action" transform="translate(2.000000, 2.000000)">
                    <mask id="mask-2" fill="white">
                        <use xlink:href="#path-1"></use>
                    </mask>
                    <g id="Mask"></g>
                </g>
                <g id="industry-commercial-fisheries" fill="#FFFFFF">
                    <g id="Group" transform="translate(16.000000, 11.000000)" fill-rule="nonzero">
                        <path d="M74.22,28.93 C73.31,27.02 71.48,25.59 69.51,25.2 C62.75,15.46 51.91,9.45 40.12,8.83 L40.11,1.36 C40.11,1.12 40.01,0.88 39.83,0.71 C39.65,0.54 39.41,0.44 39.17,0.46 C37.32,0.53 35.51,0.73 33.73,1.04 C25.64,2.46 18.41,6.33 12.81,11.84 C5.92,18.62 1.52,27.89 1.03,38.18 C1.01,38.32 0.99,38.47 0.98,38.61 C0.4,41.25 0.08,44 0.08,46.81 C0.08,54.22 2.25,61.43 6.36,67.67 C6.38,67.7 6.41,67.71 6.43,67.74 C6.45,67.77 6.46,67.8 6.47,67.83 C6.55,67.95 6.64,68.07 6.72,68.19 C13.84,78.73 25.58,85.02 38.22,85.02 L38.39,85.02 C38.44,85.02 38.53,85.01 39.08,85.01 C39.57,85.01 39.97,84.61 39.97,84.11 L39.97,65.26 C39.97,64.94 39.79,64.64 39.51,64.48 C39.45,64.45 39.39,64.42 39.32,64.4 C39.31,64.4 39.31,64.39 39.3,64.39 C39.07,64.33 38.82,64.36 38.61,64.49 C34.02,67.26 29.35,68.66 24.71,68.66 C19.35,68.66 14.2,66.79 10.12,63.41 C10.37,63.02 10.72,62.48 10.93,62.19 C14.03,57.59 18.21,53.94 23.04,51.47 L23.04,60.8 C23.04,61.3 23.44,61.7 23.94,61.7 C32.52,61.7 38.87,56.16 40.02,47.83 C46.62,47.84 68.81,47.87 68.81,47.87 C69.05,47.87 69.28,47.78 69.44,47.61 C69.49,47.56 69.51,47.5 69.55,47.45 L69.62,47.45 L69.61,47.35 C69.67,47.23 69.7,47.11 69.7,46.97 L69.7,44.77 C69.7,43.38 69.54,42.04 69.24,40.78 C69.74,40.23 72.14,37.19 73.51,35.28 C74.95,33.32 75.2,31 74.22,28.93 Z M38.31,2.3 L38.31,3.01 L38.31,8.77 C38.31,8.77 38.3,8.77 38.3,8.77 C38.23,8.77 38.16,8.76 38.09,8.76 C37.97,8.76 37.86,8.77 37.74,8.77 C23.18,8.9 10.56,17.27 4.3,29.44 C8.68,14.46 22.09,3.3 38.31,2.3 Z M24.73,70.46 C29.24,70.46 33.76,69.23 38.2,66.81 L38.2,69.56 L38.2,83.24 C38.02,83.24 37.85,83.23 37.67,83.22 C36.7,83.2 35.73,83.15 34.77,83.05 C27.17,82.32 20.06,79.21 14.39,74.21 C12.1,72.19 10.03,69.87 8.27,67.27 C8.74,66.28 9.08,65.64 9.38,65.12 C13.71,68.57 19.12,70.46 24.73,70.46 Z M37.54,50.63 C35.86,55.45 31.93,58.77 26.78,59.66 C26.15,59.77 25.51,59.85 24.85,59.89 L24.85,50.63 C24.9,50.61 24.95,50.59 25,50.57 C27.57,49.49 30.18,48.74 32.8,48.29 C33.11,48.24 33.41,48.19 33.72,48.15 C33.93,48.12 34.14,48.09 34.36,48.07 C35.63,47.92 36.92,47.84 38.23,47.84 C38.23,47.84 38.24,47.84 38.24,47.84 C38.09,48.81 37.85,49.75 37.54,50.63 Z M67.93,46.08 C63.53,46.07 44.29,46.05 39.36,46.04 C39.36,46.04 39.35,46.04 39.35,46.04 C31.51,46.04 25.13,39.49 25.13,31.43 C25.13,23.44 31.63,16.94 39.62,16.94 C40.12,16.94 40.52,16.54 40.52,16.04 C40.52,15.54 40.12,15.14 39.62,15.14 C30.64,15.14 23.33,22.45 23.33,31.43 C23.33,38.13 27.28,43.9 32.92,46.44 C32.75,46.47 32.58,46.5 32.41,46.53 C31.9,46.61 31.4,46.71 30.9,46.82 C30.88,46.82 30.86,46.83 30.84,46.83 C28.35,47.36 25.94,48.14 23.65,49.18 C23.63,49.19 23.61,49.2 23.58,49.21 C23.57,49.22 23.56,49.23 23.54,49.23 C17.89,51.82 12.99,55.91 9.46,61.17 C8.6,62.38 7.81,63.7 7,65.33 C3.64,59.71 1.87,53.34 1.87,46.82 C1.87,44.49 2.1,42.21 2.52,40 C5.71,23.26 20.44,10.56 38.08,10.56 C38.21,10.56 38.33,10.57 38.46,10.57 C49.82,10.69 60.42,16.06 67.21,25.08 C65.02,25.54 63.65,27.81 62.59,29.57 C62.06,30.45 61.34,31.67 60.84,32.25 C58.5,34.7 55.17,36.21 51.98,36.21 C45.37,36.21 39.99,30.83 39.99,24.22 C39.99,23.72 39.59,23.32 39.09,23.32 C38.59,23.32 38.19,23.72 38.19,24.22 C38.19,31.82 44.38,38.01 51.98,38.01 C55.65,38.01 59.34,36.37 62.03,33.61 C65.74,35.74 67.93,39.85 67.93,44.77 L67.93,46.08 Z M72.08,34.24 C71.13,35.56 69.77,37.31 68.87,38.45 C67.53,35.4 65.32,33.29 63.3,32.12 C63.63,31.65 63.91,31.19 64.29,30.57 C64.59,30.07 64.97,29.46 65.48,28.66 C66.47,27.1 67.75,26.84 68.66,26.9 C70.24,27 71.86,28.15 72.6,29.71 C73.3,31.18 73.11,32.79 72.08,34.24 Z" id="Shape"></path>
                        <path d="M53.12,28.05 C55.48,28.05 57.4,26.13 57.4,23.77 C57.4,21.41 55.48,19.49 53.12,19.49 C50.76,19.49 48.84,21.41 48.84,23.77 C48.84,26.13 50.76,28.05 53.12,28.05 Z M53.12,21.28 C54.49,21.28 55.61,22.4 55.61,23.77 C55.61,25.14 54.49,26.26 53.12,26.26 C51.75,26.26 50.63,25.14 50.63,23.77 C50.63,22.4 51.75,21.28 53.12,21.28 Z" id="Shape"></path>
                    </g>
                    <path d="M55.67,111.34 C24.924308,111.34 0,86.415692 0,55.67 C0,24.924308 24.924308,0 55.67,0 C86.415692,0 111.34,24.924308 111.34,55.67 C111.34,86.415692 86.415692,111.34 55.67,111.34 Z M55.67,107.34 C84.206553,107.34 107.34,84.206553 107.34,55.67 C107.34,27.133447 84.206553,4 55.67,4 C27.133447,4 4,27.133447 4,55.67 C4,84.206553 27.133447,107.34 55.67,107.34 Z" id="Oval" fill-rule="nonzero"></path>
                </g>
            </g>
        </g>
    </g>
</svg>